<svg xmlns="http://www.w3.org/2000/svg" viewBox="0 0 87.34 74.02"><defs><style>.cls-1,.cls-2,.cls-3,.cls-4,.cls-6{fill:#fff;}.cls-2{font-size:7px;}.cls-2,.cls-3,.cls-4,.cls-6{font-family:Arial-BoldItalicMT, Arial;font-weight:700;font-style:italic;}.cls-3{font-size:10px;letter-spacing:-0.03em;}.cls-4{font-size:14px;}.cls-5{letter-spacing:0.01em;}.cls-6{font-size:6px;letter-spacing:-0.07em;}.cls-7{letter-spacing:-0.12em;}.cls-8{letter-spacing:-0.11em;}</style></defs><title>Ресурс 2</title><g id="Слой_2" data-name="Слой 2"><g id="Слой_2-2" data-name="Слой 2"><path class="cls-1" d="M62.5,9.13l-29,28.75S22.63,22,10.38,18.5L32,49.63l5.88-4.75L36.13,55.63l-10.63.12s-8.83-2.87-12-21.87C12.13,25.63,0,12.25,0,12.25l22.5.13L33.88,25.13Z"/><path class="cls-1" d="M27.38,10l7.5,8A46.89,46.89,0,0,1,73.63,6.25L40.88,42.75,36.5,68s9.63-32,47-66C83.5,2,58.25-6,27.38,10Z"/><text class="cls-2" transform="translate(4.25 62.75)">МЕРЕЖА</text><text class="cls-3" transform="translate(46.62 55.25)">МАРКЕТ</text><text class="cls-4" transform="translate(38 68.75)">МЕ<tspan class="cls-5" x="21" y="0">Б</tspan><tspan x="31.08" y="0">ЛІ</tspan></text><text class="cls-6" transform="translate(2.75 68.75)">МА<tspan class="cls-7" x="8.49" y="0">Г</tspan><tspan class="cls-8" x="11.45" y="0">А</tspan><tspan x="15.13" y="0">ЗИНІВ</tspan></text></g></g></svg>