<?xml version="1.0" standalone="no"?>
<svg version="1.0" xmlns="http://www.w3.org/2000/svg"
     width="345.000000pt" height="345.000000pt" viewBox="0 0 345.000000 345.000000"
     preserveAspectRatio="xMidYMid meet">
    <metadata>
        Created by potrace 1.11, written by Peter Selinger 2001-2013
    </metadata>
    <g transform="translate(0.000000,345.000000) scale(0.100000,-0.100000)"
       fill="#000000" stroke="none">
        <path d="M1675 3433 c-140 -36 -355 -125 -478 -200 -385 -231 -719 -688 -857
-1169 l-18 -62 34 -48 c18 -27 37 -54 42 -59 5 -6 17 -24 28 -40 10 -17 23
-35 29 -42 5 -6 42 -57 80 -113 39 -55 104 -149 146 -208 42 -59 178 -253 304
-432 126 -179 274 -389 329 -468 56 -78 127 -180 159 -225 31 -45 64 -92 73
-104 95 -131 154 -221 154 -236 0 -10 4 -15 10 -12 5 3 10 0 11 -7 1 -7 4 0 8
17 5 17 68 116 142 220 74 105 141 200 149 212 8 12 57 81 109 155 52 73 195
275 316 448 122 173 320 455 440 625 129 183 218 318 217 330 -2 29 -47 165
-89 270 -139 342 -400 683 -673 878 -153 108 -381 214 -565 262 -58 15 -66 16
-100 8z"/>
    </g>
</svg>